<?xml version="1.0" encoding="UTF-8"?>
<svg width="128px" height="128px" viewBox="0 0 128 128" version="1.1" xmlns="http://www.w3.org/2000/svg" xmlns:xlink="http://www.w3.org/1999/xlink">
    <!-- Generator: Sketch 45 (43475) - http://www.bohemiancoding.com/sketch -->
    <title>icon</title>
    <desc>Created with Sketch.</desc>
    <defs></defs>
    <g id="app-icon" stroke="none" stroke-width="1" fill="none" fill-rule="evenodd">
        <g id="Artboard" transform="translate(-1259.000000, -119.000000)">
            <g id="icon" transform="translate(1259.000000, 119.000000)">
                <rect id="bg" fill="#FF0079" x="0" y="0" width="128" height="128" rx="25"></rect>
                <g id="cocoote" transform="translate(45.500000, 62.000000) scale(-1, 1) translate(-45.500000, -62.000000) translate(6.000000, 30.000000)">
                    <path d="M41,34 L71,34 C71,50.5685425 57.5685425,64 41,64 L26,64 L26,64 C17.7157288,64 11,57.2842712 11,49 L11,24 L11,24 C11,15.7157288 17.7157288,9 26,9 C34.2842712,9 41,15.7157288 41,24 L41,34 Z" id="body" fill="#FFFFFF"></path>
                    <path d="M63,34 C63,29.581722 66.581722,26 71,26 C75.418278,26 79,29.581722 79,34 L63,34 Z" id="Combined-Shape" fill="#FF0079"></path>
                    <path d="M51,30 C51,25.581722 54.581722,22 59,22 C63.418278,22 67,25.581722 67,30 L51,30 Z" id="Combined-Shape" fill="#FF0079" transform="translate(59.000000, 26.000000) rotate(-90.000000) translate(-59.000000, -26.000000) "></path>
                    <path d="M41,41 L61,41 C61,49.836556 53.836556,57 45,57 L41,57 L41,41 Z M37.5411601,41 L41,41 L41,57 L33.893474,49.4197056 L33.893474,49.4197056 C32.0048228,47.4051443 32.1068931,44.2409653 34.1214544,42.352314 C35.0481851,41.483504 36.2708606,41 37.5411601,41 L37.5411601,41 Z" id="Combined-Shape" fill="#E6E6E6"></path>
                    <polygon id="Rectangle-8" fill="#F5A623" points="0 24 11 24 11 35"></polygon>
                    <path d="M27.5761858,13.8807217 C26.4756109,15.177246 24.8338877,16 23,16 C21.4623536,16 20.0598026,15.4215877 18.9980575,14.4704737 C18.2270137,15.3714114 17.1089147,16 16,16 C13.0147186,16 11,13.9852814 11,12 C11,9.01471863 13.0147186,7 16,7 C16.538057,7 17.0782763,7.14798813 17.5799637,7.42317777 C18.5440335,5.39898813 20.6086412,4 23,4 C23.9833047,4 24.9113631,4.23653793 25.7303788,4.65581762 C26.996709,1.90760514 29.775582,0 33,0 C37.418278,0 41,3.581722 41,8 C41,12.418278 37.418278,16 33,16 C30.9070893,16 29.0018899,15.1963126 27.5761858,13.8807217 Z" id="Combined-Shape" fill="#FFB300"></path>
                    <path d="M17,42 C18.4003367,43.9383632 18.4003367,46.372583 17,48 C15.197643,49.3753453 12.6013468,49.3753453 11,48 C9.39865316,49.3753453 6.80235696,49.3753453 5,48 C3.59966329,46.372583 3.59966329,43.9383632 5,42 L11,37 L17,42 Z" id="Combined-Shape" fill="#FFB300"></path>
                    <polyline id="eye" stroke="#000000" stroke-width="2" stroke-linecap="round" stroke-linejoin="round" points="17 26 21 22 25 26"></polyline>
                </g>
                <g id="Group-2" transform="translate(88.000000, 56.000000)">
                    <circle id="Oval-8" fill="#E6E6E6" cx="12" cy="14" r="10"></circle>
                    <circle id="Oval-8" fill="#FFB300" cx="12" cy="3" r="2"></circle>
                    <circle id="Oval-8" fill="#FFB300" cx="16" cy="3" r="3"></circle>
                    <circle id="Oval-8" fill="#E6E6E6" cx="12" cy="22" r="12"></circle>
                    <path d="M6,12 C6,10.8954305 6.8954305,10 8,10 C9.1045695,10 10,10.8954305 10,12 L6,12 Z" id="Combined-Shape" fill="#000000" opacity="0.247395833"></path>
                    <path d="M14,12 C14,10.8954305 14.8954305,10 16,10 C17.1045695,10 18,10.8954305 18,12 L14,12 Z" id="Combined-Shape" fill="#000000" opacity="0.247395833"></path>
                    <polygon id="Triangle" fill="#F5A623" transform="translate(12.000000, 15.500000) scale(1, -1) translate(-12.000000, -15.500000) " points="12 14 15 17 9 17"></polygon>
                </g>
                <path d="M85.5681126,73.5681126 C85.1979095,75.3697475 85,77.0543562 85,78.5 C85,87.0604136 91.9395864,94 100.5,94 C109.060414,94 116,87.0604136 116,78.5 C116,76.8675811 115.747648,74.9304605 115.279826,72.8642093 L111,78 L105,73 L101,78 L96,73 L90,78 L85.5681126,73.5681126 Z" id="Combined-Shape" fill="#FFFFFF"></path>
            </g>
        </g>
    </g>
</svg>